<svg xmlns="http://www.w3.org/2000/svg" xmlns:xlink="http://www.w3.org/1999/xlink" width="207" height="123" viewBox="0 0 207 123">
    <defs>
        <path id="b" d="M104 0l5.712 17.886 18.288.066-14.757 11.12L118.833 47 104 35.987 89.167 47l5.59-17.927L80 17.953l18.288-.067z"/>
        <filter id="a" width="116.6%" height="116.9%" x="-8.3%" y="-9.1%" filterUnits="objectBoundingBox">
            <feMorphology in="SourceAlpha" operator="dilate" radius="1" result="shadowSpreadOuter1"/>
            <feOffset dx="2" dy="1" in="shadowSpreadOuter1" result="shadowOffsetOuter1"/>
            <feComposite in="shadowOffsetOuter1" in2="SourceAlpha" operator="out" result="shadowOffsetOuter1"/>
            <feColorMatrix in="shadowOffsetOuter1" values="0 0 0 0 0 0 0 0 0 0 0 0 0 0 0 0 0 0 0.5 0"/>
        </filter>
    </defs>
    <g fill="none" fill-rule="evenodd">
        <text fill="#888" font-family="Montserrat-Regular, Montserrat" font-size="14" letter-spacing=".7" transform="translate(-17 -13)">
            <tspan x="40.133" y="135">Factory Management</tspan>
        </text>
        <g transform="translate(0 4)">
            <use fill="#000" filter="url(#a)" xlink:href="#b"/>
            <use fill="#F00" xlink:href="#b"/>
            <path stroke="#FFF" d="M97.922 17.388l-17.924.064-1.485.006 1.186.894L94.175 29.26 88.69 46.851l-.457 1.465 1.232-.915L104 36.61l14.535 10.792 1.232.915-.457-1.465-5.485-17.59L128.3 18.35l1.186-.893-1.485-.006-17.924-.064-5.602-17.54L104-1.643l-.476 1.49-5.602 17.54z"/>
        </g>
        <path fill="#00A650" d="M48.268 80.168c0 1.65-.687 2.141-3.265 3.075-2.064.804-3.653 1.16-4.127 1.16-.86 0-1.245-.669-1.245-2.05 0-3.298.9-7.31 4.254-7.31 3.094 0 4.383 3.477 4.383 5.125zm-33.527 14.4c0-.269-.04-.445-.169-.58-.345-.358-1.634-.58-2.28-1.249-.47-.49-.773-1.337-.773-3.298v-7.535c0-.58.13-.935.689-.935H19.6c.559 0 .687.355.687.935v7.535c0 1.961-.3 2.807-.774 3.298-.645.67-1.934.891-2.277 1.249-.13.135-.172.311-.172.58 0 1.156.172 2.318.343 2.495.172.18.43.223.99.223h12.077c.558 0 .815-.043.988-.223.172-.177.346-1.339.346-2.496 0-.268-.045-.444-.174-.58-.3-.31-1.634-.578-2.28-1.248-.47-.49-.728-1.426-.728-2.943V68.979c0-1.068.258-1.784.644-2.182.688-.714 2.064-.85 2.364-1.162.129-.133.174-.4.174-.623 0-.802-.174-2.006-.346-2.184-.173-.178-.343-.225-.988-.225h-11.65c-.471 0-.643.047-.771.182-.129.133-.259 1.068-.259 2.272 0 .222.044.49.13.578.214.225 1.29.58 1.72 1.027.471.491.643 1.025.643 2.54v5.929c0 .223-.215.534-.515.534h-7.737c-.302 0-.517-.311-.517-.534v-5.929c0-1.515.172-2.049.645-2.54.43-.446 1.504-.802 1.72-1.027.086-.089.13-.356.13-.578 0-1.204-.13-2.14-.26-2.272-.128-.135-.3-.182-.773-.182H1.334c-.645 0-.817.047-.99.225C.174 63.006 0 64.21 0 65.012c0 .223.043.49.173.623.3.313 1.676.448 2.363 1.162.387.398.645 1.114.645 2.182v20.817c0 1.517-.258 2.452-.73 2.943-.645.67-1.977.938-2.278 1.249-.13.135-.173.311-.173.58 0 1.156.173 2.318.344 2.495.173.18.345.223.99.223H13.41c.559 0 .816-.043.99-.223.171-.177.34-1.339.34-2.496zm39.932-.625c1.246-1.292 1.549-2.051 1.549-2.675 0-.67-.173-1.204-.689-1.738-.56-.58-1.03-.67-1.462-.67-.602 0-.86.178-1.246.581-1.89 1.961-4.298 3.03-7.221 3.03-2.965 0-4.814-2.05-4.814-3.344 0-.355.301-.668 1.074-.891 8.253-2.675 11.692-4.457 12.98-5.795.731-.713 1.031-1.56 1.031-2.318 0-3.387-4.725-9.404-11.99-9.404-3.009 0-6.06 1.245-8.338 3.61-2.278 2.363-3.697 5.705-3.697 10.253 0 4.368 1.333 7.4 3.654 9.807C37.824 96.796 41.177 98 44.832 98c3.738 0 7.263-1.382 9.841-4.057zm13.453-21.71c0-.578-.302-.803-.773-.803h-8.296c-.474 0-.644 0-.775.18-.17.178-.34 1.381-.34 2.186 0 .221.084.398.17.532.301.402.945.535 1.505 1.026.385.401.559 1.248.559 2.54v11.902c0 1.517-.174 2.497-.604 2.943-.645.67-1.719.98-2.02 1.292-.084.092-.128.268-.128.581 0 1.159.172 2.274.344 2.45.13.134.343.224.815.224h11.049c.472 0 .687-.09.815-.223.172-.177.3-1.292.3-2.45 0-.314-.041-.49-.128-.582-.3-.311-1.289-.622-1.934-1.292-.429-.446-.559-1.426-.559-2.943V72.232zM63.527 61a4.307 4.307 0 0 0-4.298 4.325c0 2.45 1.935 4.369 4.298 4.369 2.408 0 4.342-1.918 4.342-4.369A4.316 4.316 0 0 0 63.527 61zm33.311 17.34c0-4.992-2.492-7.533-6.404-7.533-1.85 0-3.826.623-5.803 1.873-.687.446-.902.58-1.074.58-.689 0-.215-1.83-1.462-1.83H74.53c-.474 0-.602 0-.774.18-.215.223-.387 1.381-.387 2.186 0 .221.044.398.172.532.344.358.989.491 1.504 1.026.389.401.557 1.248.557 2.54v11.902c0 1.517-.128 2.497-.557 2.943-.602.623-1.632.98-1.934 1.292-.085.092-.13.268-.13.581 0 1.159.13 2.274.303 2.45.129.134.386.224.86.224h10.831c.515 0 .685-.09.814-.223.217-.223.39-1.292.39-2.45 0-.314-.045-.49-.132-.582-.342-.354-1.33-.669-1.932-1.292-.43-.446-.644-1.426-.644-2.943v-8.78c0-3.611 1.931-4.725 3.352-4.725 1.46 0 2.277 1.114 2.277 3.475v12.35c0 3.299 2.021 5.481 5.675 5.481 4.038 0 5.758-3.03 5.758-3.654 0-.534-.816-1.605-1.331-1.605-.604 0-1.462.802-1.893.802-.3 0-.472-.223-.472-.935V78.34zm79.646 15.603c1.245-1.292 1.545-2.051 1.545-2.675 0-.67-.17-1.204-.685-1.738-.56-.58-1.035-.67-1.462-.67-.602 0-.86.178-1.248.581-1.89 1.961-4.297 3.03-7.22 3.03-2.965 0-4.814-2.05-4.814-3.344 0-.355.3-.668 1.074-.891 8.252-2.675 11.69-4.457 12.981-5.795.73-.713 1.03-1.56 1.03-2.318 0-3.387-4.726-9.404-11.99-9.404-3.011 0-6.061 1.245-8.34 3.61-2.277 2.363-3.696 5.705-3.696 10.253 0 4.368 1.333 7.4 3.654 9.807 2.32 2.407 5.674 3.611 9.326 3.611 3.74 0 7.267-1.382 9.845-4.057zm-6.405-13.775c0 1.65-.687 2.141-3.267 3.075-2.062.804-3.653 1.16-4.128 1.16-.858 0-1.246-.669-1.246-2.05 0-3.298.904-7.31 4.257-7.31 3.093 0 4.384 3.477 4.384 5.125zm-46.42 13.775c1.245-1.292 1.548-2.051 1.548-2.675 0-.67-.173-1.204-.689-1.738-.558-.58-1.03-.67-1.46-.67-.605 0-.86.178-1.248.581-1.89 1.961-4.298 3.03-7.221 3.03-2.965 0-4.814-2.05-4.814-3.344 0-.355.301-.668 1.075-.891 8.253-2.675 11.69-4.457 12.98-5.795.732-.713 1.032-1.56 1.032-2.318 0-3.387-4.727-9.404-11.992-9.404-3.009 0-6.06 1.245-8.338 3.61-2.278 2.363-3.697 5.705-3.697 10.253 0 4.368 1.333 7.4 3.652 9.807 2.323 2.407 5.676 3.611 9.33 3.611 3.738 0 7.263-1.382 9.841-4.057zm-6.404-13.775c0 1.65-.689 2.141-3.267 3.075-2.064.804-3.653 1.16-4.127 1.16-.86 0-1.245-.669-1.245-2.05 0-3.298.902-7.31 4.254-7.31 3.094 0 4.385 3.477 4.385 5.125zm86.047-1.828c0-4.992-2.492-7.533-6.402-7.533-1.85 0-3.827.623-5.803 1.873-.688.446-.905.58-1.074.58-.688 0-.216-1.83-1.462-1.83h-7.564c-.473 0-.603 0-.775.18-.215.223-.387 1.381-.387 2.186 0 .221.044.398.172.532.345.358.99.491 1.506 1.026.385.401.558 1.248.558 2.54v11.902c0 1.517-.13 2.497-.558 2.943-.604.623-1.634.98-1.935 1.292-.086.092-.13.268-.13.581 0 1.159.13 2.274.299 2.45.132.134.39.224.862.224h10.83c.517 0 .689-.09.819-.223.215-.223.385-1.292.385-2.45 0-.314-.042-.49-.128-.582-.344-.354-1.333-.669-1.935-1.292-.43-.446-.646-1.426-.646-2.943v-8.78c0-3.611 1.935-4.725 3.354-4.725 1.463 0 2.278 1.114 2.278 3.475v12.35c0 3.299 2.021 5.481 5.675 5.481 4.04 0 5.759-3.03 5.759-3.654 0-.534-.817-1.605-1.332-1.605-.602 0-1.461.802-1.891.802-.302 0-.475-.223-.475-.935V78.34zM135.82 61.802h-8.251c-.517 0-.732 0-.859.225-.173.222-.303 1.337-.303 2.094 0 .267.045.445.13.623.3.313 1.462.624 1.977 1.16.429.447.646 1.337.646 4.724v17.831c0 2.988-.3 3.924-.646 4.28-.602.623-1.632.98-1.934 1.292-.085.092-.128.268-.128.581 0 1.159.128 2.274.3 2.45.13.134.3.224.86.224h10.789c.558 0 .729-.09.859-.223.171-.177.386-1.292.386-2.45 0-.314-.041-.49-.171-.582-.3-.311-1.333-.669-1.893-1.292-.47-.446-.643-1.426-.643-2.943v-1.024c0-.58.173-.759 1.118-1.74.429-.4.814-.71 1.118-.71.43 0 .772.31 5.5 10.206.3.625.43.758 1.203.758h7.005c.517 0 .69-.09.819-.223.171-.177.343-1.292.343-2.45 0-.314-.042-.49-.13-.582-.3-.311-2.104-.534-2.491-1.292-6.232-10.92-6.405-11.279-6.405-11.946 0-.58 2.751-3.431 5.03-5.304 1.461-1.204 2.405-.403 2.405-1.828 0-1.65-.213-2.231-.515-2.231h-10.4c-.904 0-.989.534-.989 2.542 0 .668 1.804.758 1.804 1.693 0 .803-4.383 5.173-5.114 5.173-.258 0-.301-.178-.301-.938V63.051c0-.714-.474-1.249-1.12-1.249z"/>
        <path fill="#444" d="M203 61c.686 0 1.344.194 1.974.582.63.383 1.124.936 1.483 1.656.362.72.543 1.475.543 2.262a4.97 4.97 0 0 1-.533 2.244 4.04 4.04 0 0 1-1.477 1.663c-.63.395-1.294.593-1.99.593s-1.361-.198-1.995-.593a4.088 4.088 0 0 1-1.478-1.663A5.01 5.01 0 0 1 199 65.5c0-.787.18-1.541.538-2.262.362-.72.858-1.273 1.488-1.656.63-.388 1.288-.582 1.974-.582m.006.881c-.55 0-1.078.155-1.582.464-.505.31-.904.754-1.196 1.334a4.031 4.031 0 0 0-.434 1.821c0 .63.141 1.232.423 1.804a3.276 3.276 0 0 0 1.191 1.339c.508.321 1.04.482 1.598.482.56 0 1.093-.16 1.598-.482a3.276 3.276 0 0 0 1.19-1.34 3.986 3.986 0 0 0 .429-1.803c0-.634-.147-1.242-.44-1.821-.288-.58-.687-1.024-1.195-1.334a2.984 2.984 0 0 0-1.582-.464m-1.812 6.028v-4.776h.861c.808 0 1.26.003 1.358.011.286.028.507.093.663.194.16.098.293.25.397.459.108.203.162.43.162.681 0 .345-.1.64-.303.887-.198.243-.478.394-.84.452a.991.991 0 0 1 .297.182c.07.063.166.185.287.365.032.047.136.24.314.581l.501.964h-1.065l-.355-.776c-.24-.52-.439-.848-.596-.98a.871.871 0 0 0-.595-.206h-.225v1.962h-.861m.861-2.714h.35c.498 0 .806-.022.925-.065a.557.557 0 0 0 .287-.223.677.677 0 0 0 .104-.37.609.609 0 0 0-.104-.353.53.53 0 0 0-.287-.223c-.126-.047-.434-.07-.925-.07h-.35v1.304"/>
    </g>
</svg>
