<svg xmlns="http://www.w3.org/2000/svg" xmlns:xlink="http://www.w3.org/1999/xlink" width="16" height="12" viewBox="0 0 16 12">
    <defs>
        <path id="a" d="M13.333 0H2.667A2.675 2.675 0 0 0 0 2.667v6.666C0 10.8 1.2 12 2.667 12h10.666C14.8 12 16 10.8 16 9.333V2.667C16 1.2 14.8 0 13.333 0zm.407 4.171L8.598 7.67c-.325.198-.716.33-1.106.33-.39 0-.781-.132-1.107-.33L1.244 4.17c-.26-.198-.326-.594-.13-.924.195-.264.585-.33.91-.132l5.142 3.499c.196.132.52.132.716 0l5.142-3.499c.325-.198.716-.132.91.198.131.264.066.66-.194.858z"/>
    </defs>
    <use fill="#CCC" fill-rule="nonzero" xlink:href="#a"/>
</svg>
