<svg xmlns="http://www.w3.org/2000/svg" width="16" height="20" viewBox="0 0 16 20">
    <path fill="#CCC" fill-rule="nonzero" d="M14.4 8.002H4.8v-2.24c0-1.68 1.2-3.2 2.88-3.36 1.92-.16 3.52 1.36 3.52 3.2v3.274h2.4V5.602c0-3.04-2.4-5.52-5.44-5.6-3.12-.08-5.76 2.48-5.76 5.6v2.4h-.8c-.88 0-1.6.72-1.6 1.6v5.6c0 2.24 1.76 4 4 4h8c2.24 0 4-1.76 4-4v-5.6c0-.88-.72-1.6-1.6-1.6zm-5.6 6.16v1.04c0 .4-.4.8-.8.8s-.8-.4-.8-.8v-1.04c-.48-.24-.8-.8-.8-1.36 0-.88.72-1.6 1.6-1.6.88 0 1.6.72 1.6 1.6 0 .56-.32 1.12-.8 1.36z"/>
</svg>
