<svg xmlns="http://www.w3.org/2000/svg" width="68" height="59" viewBox="0 0 68 59">
    <g fill="#28AFB0" fill-rule="nonzero">
        <path d="M67.332 28.793c0-2.918-2.293-5.207-5.207-5.207L46.5 23.582c-.832 0-3.75-1.25-1.457-4.793C46.5 16.082 46.5 5.871 46.5 5.871c0-2.914-2.293-5.203-5.207-5.203-2.918 0-5.21 2.29-5.21 5.207 0 15.207-14.583 19.793-14.583 19.793V52.75C28.168 55.043 29.832 59 38.168 59h15.625C56.711 59 59 56.707 59 53.793c0-1.25-.418-2.293-1.043-3.125 2.918 0 5.207-2.293 5.207-5.207 0-1.25-.418-2.5-1.25-3.543 2.082-.832 3.332-2.707 3.332-4.793 0-1.25-.418-2.5-1.25-3.543 1.879-.625 3.336-2.5 3.336-4.79v.001zM11.082 21.5H.668v35.418h10.418c3.543 0 6.25-2.918 6.25-6.25l-.004-22.918c0-3.543-2.707-6.25-6.25-6.25z"/>
    </g>
</svg>
